# xmcd
#
# Track frame offsets:
#	150
#	14664
#	33029
#	48877
#	66422
#	85571
#	103167
#	117153
#	133430
#	151634
#	168499
#	189785
#	205449
#	221740
#
# Disc length: 3113 seconds
#
# Revision: 1
# Processed by: cddbd v1.5.1PL0 Copyright (c) Steve Scherf et al.
# Submitted via: audiograbber 1.83.01
#
DISCID=be0c270e
DTITLE=Various Artist - SD109
DYEAR=1900
DGENRE=Karaoke Country
TTITLE0=Alan Jackson and Jimmy Buffett - It's Five O'Clock Somewhere
TTITLE1=Martina McBride - This ONe's For The Girls
TTITLE2=Tim McGraw - Real Good Man
TTITLE3=Keith Urban - Who Wouldn't Wanna Be Me
TTITLE4=Dixie Chicks - Godspeed
TTITLE5=Gary Allan - Tough Little Boys
TTITLE6=Phil Vassar - Ultimate Love
TTITLE7=Billy Currington - Walk A Little Straighter
TTITLE8=Josh Turner - Long Black Train
TTITLE9=Ashley Gearing - Can You Hear Me When I Talk To You
TTITLE10=Sherrie Austin - Streets Of Heaven
TTITLE11=Jeff Carson - I Can Only Imagine
TTITLE12=Patty Loveless - Lovin' All Night
TTITLE13=John Michael Montgomery - Four Wheel Drive
EXTD=
EXTT0=
EXTT1=
EXTT2=
EXTT3=
EXTT4=
EXTT5=
EXTT6=
EXTT7=
EXTT8=
EXTT9=
EXTT10=
EXTT11=
EXTT12=
EXTT13=
PLAYORDER=
